{"title":"LOTR The Two Towers Extended ITA ENG AC3 BDRip 1080p X265","uid":9543303,"size":4330977065,"categoryP":"video","categoryS":"hd___movies","magnet":"?xt=urn:btih:c32614e183e4aeb790237d19601950ef272aad5e&amp;dn=LOTR+The+Two+Towers+Extended+ITA+ENG+AC3+BDRip+1080p+X265&amp;tr=udp%3A%2F%2Ftracker.openbittorrent.com%3A80&amp;tr=udp%3A%2F%2Fopen.demonii.com%3A1337&amp;tr=udp%3A%2F%2Ftracker.coppersurfer.tk%3A6969&amp;tr=udp%3A%2F%2Fexodus.desync.com%3A6969","seeders":10,"leechers":7,"uploader":"ZMachTNT","files":-1,"time":1391086860,"description":"ENCODED WITH HEVC/H.265\n\n.: Title :.\n\nThe Lord of the Rings: The Two Towers Extended Edition\n\nIl Signore degli Anelli: Le Due Torri Versione Estesa\n\n.: Originale Release :.\n &lt;a href=&quot;\nhttp://forum.tntvillage.scambioetico.org/index.php?showtopic=383173&quot; rel=&quot;nofollow&quot; target=&quot;_NEW&quot;&gt;\nhttp://forum.tntvillage.scambioetico.org/index.php?showtopic=383173&lt;/a&gt;\n\n.: Mediainfo :.\n\nGeneral\nUnique ID                                : 195703553763682286416699951247048348866 (0x933B22293B57192DB5B50032BBA894C2)\nComplete name                            : H:LOTR.II.The.Two.Towers.ITA.ENG.AC3.BDRip.1080p.X265-ZMachine.mkv\nFormat                                   : Matroska\nFormat version                           : Version 4 / Version 2\nFile size                                : 4.03 GiB\nDuration                                 : 3h 55mn\nOverall bit rate                         : 2 453 Kbps\nMovie name                               : LOTR II: The Two Towers - ZMachine\nEncoded date                             : UTC 2014-01-29 12:28:12\nWriting application                      : mkvmerge v6.7.0 ('Back to the Ground') 64bit built on Jan  8 2014 15:10:52\nWriting library                          : libebml v1.3.0 + libmatroska v1.4.1\n\nVideo\nID                                       : 1\nFormat                                   : HEVC\nFormat/Info                              : High Efficiency Video Coding\nCodec ID                                 : V_MPEGH/ISO/HEVC\nDuration                                 : 3h 55mn\nBit rate                                 : 1 508 Kbps\nWidth                                    : 1 912 pixels\nHeight                                   : 800 pixels\nDisplay aspect ratio                     : 2.40:1\nFrame rate mode                          : Constant\nFrame rate                               : 23.976 fps\nBits/(Pixel*Frame)                       : 0.041\nStream size                              : 2.48 GiB (61%)\nTitle                                    : Video H.265 (Encoded by ZMachine)\nDefault                                  : Yes\nForced                                   : Yes\n\nAudio #1\nID                                       : 2\nFormat                                   : AC-3\nFormat/Info                              : Audio Coding 3\nMode extension                           : CM (complete main)\nFormat settings, Endianness              : Big\nCodec ID                                 : A_AC3\nDuration                                 : 3h 55mn\nBit rate mode                            : Constant\nBit rate                                 : 448 Kbps\nChannel(s)                               : 6 channels\nChannel positions                        : Front: L C R, Side: L R, LFE\nSampling rate                            : 48.0 KHz\nBit depth                                : 16 bits\nCompression mode                         : Lossy\nStream size                              : 754 MiB (18%)\nTitle                                    : Audio AC3\nLanguage                                 : Italian\nDefault                                  : Yes\nForced                                   : No\n\nAudio #2\nID                                       : 3\nFormat                                   : AC-3\nFormat/Info                              : Audio Coding 3\nMode extension                           : CM (complete main)\nFormat settings, Endianness              : Big\nCodec ID                                 : A_AC3\nDuration                                 : 3h 55mn\nBit rate mode                            : Constant\nBit rate                                 : 448 Kbps\nChannel(s)                               : 6 channels\nChannel positions                        : Front: L C R, Side: L R, LFE\nSampling rate                            : 48.0 KHz\nBit depth                                : 16 bits\nCompression mode                         : Lossy\nStream size                              : 754 MiB (18%)\nTitle                                    : Audio AC3\nLanguage                                 : English\nDefault                                  : No\nForced                                   : No\n\nText #1\nID                                       : 4\nFormat                                   : ASS\nCodec ID                                 : S_TEXT/ASS\nCodec ID/Info                            : Advanced Sub Station Alpha\nCompression mode                         : Lossless\nTitle                                    : Sub Forced\nLanguage                                 : Italian\nDefault                                  : Yes\nForced                                   : Yes\n\nText #2\nID                                       : 5\nFormat                                   : ASS\nCodec ID                                 : S_TEXT/ASS\nCodec ID/Info                            : Advanced Sub Station Alpha\nCompression mode                         : Lossless\nTitle                                    : Sub Forced\nLanguage                                 : English\nDefault                                  : No\nForced                                   : No\n\nText #3\nID                                       : 6\nFormat                                   : ASS\nCodec ID                                 : S_TEXT/ASS\nCodec ID/Info                            : Advanced Sub Station Alpha\nCompression mode                         : Lossless\nTitle                                    : Sub\nLanguage                                 : Italian\nDefault                                  : No\nForced                                   : No\n\nText #4\nID                                       : 7\nFormat                                   : ASS\nCodec ID                                 : S_TEXT/ASS\nCodec ID/Info                            : Advanced Sub Station Alpha\nCompression mode                         : Lossless\nTitle                                    : Sub\nLanguage                                 : English\nDefault                                  : No\nForced                                   : No","torrent":{"xt":"urn:btih:c32614e183e4aeb790237d19601950ef272aad5e","amp;dn":"LOTR+The+Two+Towers+Extended+ITA+ENG+AC3+BDRip+1080p+X265","amp;tr":["udp%3A%2F%2Ftracker.openbittorrent.com%3A80","udp%3A%2F%2Fopen.demonii.com%3A1337","udp%3A%2F%2Ftracker.coppersurfer.tk%3A6969","udp%3A%2F%2Fexodus.desync.com%3A6969"],"infoHash":"c32614e183e4aeb790237d19601950ef272aad5e","infoHashBuffer":{"type":"Buffer","data":[195,38,20,225,131,228,174,183,144,35,125,25,96,25,80,239,39,42,173,94]},"announce":[],"urlList":[]}}